<?xml version="1.0" standalone="no"?>
<!DOCTYPE svg PUBLIC "-//W3C//DTD SVG 20010904//EN"
 "http://www.w3.org/TR/2001/REC-SVG-20010904/DTD/svg10.dtd">
<svg version="1.0" xmlns="http://www.w3.org/2000/svg"
 width="300.000000pt" height="193.000000pt" viewBox="0 0 300.000000 193.000000"
 preserveAspectRatio="xMidYMid meet">
<metadata>
Created by potrace 1.10, written by Peter Selinger 2001-2011
</metadata>
<g transform="translate(0.000000,193.000000) scale(0.100000,-0.100000)"
fill="#000000" stroke="none">
<path d="M2104 1906 c-115 -25 -150 -43 -170 -91 -23 -56 -17 -103 45 -347 33
-128 69 -285 81 -348 12 -63 29 -126 37 -138 8 -13 13 -25 11 -26 -2 -2 -29
-22 -62 -46 -32 -25 -54 -46 -48 -48 6 -2 8 -11 5 -19 -6 -15 -7 -15 -13 1 -5
15 -13 11 -52 -29 -27 -27 -44 -53 -41 -61 3 -8 0 -14 -7 -14 -6 0 -8 -5 -4
-12 4 -7 3 -8 -5 -4 -9 6 -9 11 0 22 27 33 -6 10 -50 -34 -62 -62 -131 -155
-131 -175 0 -22 55 -65 94 -73 40 -7 76 2 76 19 1 18 67 105 89 117 19 10 19
9 5 -17 -7 -16 -14 -36 -14 -45 0 -24 58 -88 81 -88 10 0 25 -12 33 -27 11
-20 15 -23 16 -10 0 13 8 17 34 17 41 0 42 -1 51 -61 6 -42 5 -47 -20 -63 -14
-10 -40 -18 -57 -18 -16 -1 -32 -7 -35 -15 -3 -8 -12 -12 -19 -9 -8 3 -25 1
-38 -4 -17 -6 -26 -5 -30 3 -3 9 -5 9 -5 0 -2 -21 -60 -45 -92 -38 -16 4 -32
7 -36 8 -5 0 -14 7 -22 14 -7 8 -16 11 -19 8 -13 -13 44 -55 78 -56 37 -2 162
33 266 73 53 20 60 26 54 43 -4 11 -11 44 -15 73 -6 43 -4 52 8 52 12 0 17
-17 23 -70 3 -38 9 -70 12 -70 3 0 13 7 22 15 42 38 384 77 497 56 36 -6 66
-11 67 -9 19 44 55 104 86 146 31 41 36 52 22 52 -9 0 -71 14 -137 30 -131 33
-165 36 -165 18 -1 -19 -87 -79 -150 -105 -30 -12 -47 -23 -38 -23 29 0 148
51 148 64 0 6 13 19 29 29 23 13 38 15 75 8 25 -5 46 -6 46 -3 0 3 5 1 12 -6
7 -7 23 -12 37 -12 29 0 91 -21 91 -31 0 -16 -30 -62 -49 -75 -12 -9 -21 -22
-21 -30 0 -17 5 -16 -137 -14 -62 1 -118 -2 -125 -6 -7 -5 -31 -9 -53 -10 -50
-2 -159 -21 -204 -36 -26 -8 -35 -7 -42 3 -13 21 -11 69 3 69 19 0 -25 29 -45
30 -9 0 -26 -5 -36 -12 -21 -13 -86 1 -128 28 -32 20 -56 70 -44 92 13 24 167
156 238 204 110 74 339 178 393 178 4 0 6 -18 3 -39 -4 -31 0 -47 18 -73 13
-18 23 -42 21 -53 -2 -18 -2 -18 8 -2 6 9 18 17 25 17 8 0 15 4 15 9 0 5 3 16
6 25 5 13 1 13 -26 3 -25 -10 -33 -9 -40 3 -14 21 -12 100 1 100 7 0 9 10 5
25 -3 13 -2 43 3 67 8 33 7 44 -5 53 -16 12 -60 82 -94 153 -31 63 -38 53 -12
-18 4 -11 2 -13 -9 -5 -8 6 -2 -1 13 -15 37 -33 37 -54 -1 -48 -20 3 -27 0
-24 -8 2 -7 -5 -22 -16 -33 -25 -25 -25 -25 27 -7 46 17 52 13 76 -46 18 -43
8 -91 -20 -97 -19 -3 -19 -3 0 18 35 38 6 42 -81 11 -90 -31 -290 -132 -322
-161 -11 -11 -25 -19 -31 -19 -5 0 -10 -4 -10 -8 0 -4 -13 -16 -30 -25 -16
-10 -57 -44 -92 -77 -34 -32 -66 -56 -72 -53 -6 3 -8 3 -5 -1 4 -4 -12 -25
-35 -48 -22 -22 -35 -36 -27 -32 9 5 12 3 7 -4 -4 -7 -13 -12 -20 -12 -17 0
-48 -35 -39 -43 3 -4 -2 -7 -11 -7 -11 0 -16 -5 -13 -14 4 -10 0 -12 -14 -9
-10 3 -19 10 -19 15 0 5 -4 7 -9 4 -5 -3 -20 3 -32 14 -21 17 -22 22 -9 32 8
7 21 25 29 40 8 15 17 25 21 23 5 -3 11 2 14 11 3 8 10 13 14 10 5 -3 14 6 20
19 7 14 17 25 24 25 7 0 24 14 38 31 36 45 80 86 109 101 41 21 64 46 58 62
-3 9 -2 18 4 21 5 4 9 3 8 -2 -4 -20 3 -22 26 -7 14 9 23 20 20 24 -3 4 2 11
11 14 10 4 13 2 8 -7 -4 -6 2 -4 13 6 11 10 36 26 54 36 19 9 59 34 90 54 58
37 76 39 58 5 -10 -18 -5 -17 41 8 50 27 129 108 117 120 -7 7 -47 -14 -47
-25 0 -13 -51 -27 -78 -23 -13 2 -19 8 -16 14 4 6 3 8 -3 5 -5 -4 -16 12 -23
34 -12 34 -11 44 3 75 10 19 21 33 26 30 4 -3 33 19 63 48 39 38 53 58 47 67
-7 11 -9 10 -9 -3 0 -19 -15 -24 -24 -9 -8 12 13 28 53 38 19 5 36 14 39 21 3
9 -3 10 -22 2 -14 -5 -33 -7 -43 -3 -11 4 -14 3 -9 -5 5 -8 0 -12 -13 -12 -15
0 -21 -6 -21 -24 0 -15 -7 -26 -20 -29 -11 -3 -20 -1 -20 4 0 5 -7 9 -15 9 -8
0 -15 5 -15 10 0 14 33 13 48 -2 16 -16 15 -6 -3 28 -12 23 -12 30 -2 32 7 1
20 15 30 30 15 25 16 25 17 6 0 -18 17 -34 35 -34 7 0 -20 47 -35 61 -20 19
-50 20 -50 2 0 -10 -7 -14 -20 -10 -21 5 -27 -7 -9 -19 6 -3 16 -1 22 5 6 6
18 11 26 11 11 0 6 -9 -14 -28 -28 -25 -31 -26 -43 -10 -7 10 -20 18 -29 18
-13 0 -12 -5 8 -27 14 -15 18 -24 9 -21 -12 4 -15 -4 -16 -42 0 -47 0 -48 24
-39 14 5 27 7 29 5 3 -3 16 -1 29 4 13 5 24 7 24 3 0 -14 -43 -41 -75 -47 -25
-5 -35 -13 -37 -29 -2 -12 -8 -22 -13 -22 -20 0 -78 -62 -70 -75 5 -9 14 -4
30 16 25 32 50 25 41 -12 -4 -14 -2 -24 4 -24 5 0 10 -8 10 -18 0 -10 5 -23
12 -30 14 -14 17 -12 -59 -44 l-63 -27 0 32 c0 49 -63 347 -110 518 -54 198
-71 260 -75 281 -3 13 6 18 43 23 26 4 74 14 107 22 33 8 83 19 110 23 l50 8
-65 0 c-36 0 -110 -10 -166 -22z m-94 -66 c-6 -11 -8 -25 -5 -30 3 -5 1 -11
-5 -15 -20 -12 -9 -94 35 -271 25 -98 61 -258 81 -354 20 -96 37 -177 39 -179
9 -9 25 13 25 34 0 61 -113 547 -155 669 -8 22 -14 55 -14 71 0 25 3 22 20
-25 30 -82 103 -374 139 -549 30 -151 32 -210 7 -212 -63 -7 -60 -10 -79 86
-34 176 -69 325 -109 470 -31 115 -40 162 -38 217 2 60 5 71 27 88 32 26 46
25 32 0z"/>
<path d="M2735 1889 c-49 -4 -144 -13 -210 -19 -212 -19 -434 -64 -459 -91 -8
-9 -5 -10 14 -5 217 56 531 96 750 96 154 0 199 7 154 24 -20 8 -134 6 -249
-5z"/>
<path d="M1375 1866 c-73 -24 -175 -75 -175 -89 0 -6 13 -1 60 24 78 43 110
52 205 57 98 5 104 13 20 26 -28 4 -61 -1 -110 -18z"/>
<path d="M1636 1813 c28 -25 44 -56 60 -117 9 -34 10 -46 1 -37 -6 6 -18 11
-26 11 -10 0 -7 -6 8 -19 13 -11 27 -21 33 -23 5 -2 9 -20 8 -41 -2 -61 -2
-69 3 -152 3 -44 12 -111 20 -150 7 -38 13 -110 13 -160 -1 -110 -11 -116 -86
-50 -29 25 -59 45 -68 43 -11 -2 -21 -21 -29 -52 -7 -26 -19 -59 -28 -72 -9
-14 -32 -78 -51 -142 -20 -64 -39 -121 -44 -127 -4 -5 -5 -28 -1 -50 6 -36 9
-40 39 -43 20 -2 32 -8 29 -15 -2 -7 -16 -10 -32 -9 l-28 4 8 -59 c4 -32 8
-62 8 -68 1 -5 -5 -10 -13 -10 -11 0 -16 15 -18 60 -4 67 -14 85 -48 85 -13 0
-24 5 -24 10 0 6 14 10 30 10 30 0 31 1 24 38 -4 20 -12 44 -19 52 -6 8 -43
67 -80 130 -72 120 -142 213 -155 205 -5 -3 -26 15 -48 40 -28 32 -39 39 -35
24 3 -12 32 -49 64 -84 32 -34 55 -66 51 -70 -4 -5 -2 -5 4 -2 7 4 27 -14 48
-41 19 -26 40 -52 46 -59 6 -7 10 -16 9 -20 -3 -19 2 -36 8 -29 10 9 73 -104
73 -131 0 -13 -9 -28 -20 -35 -27 -17 -25 -42 4 -62 18 -11 27 -29 32 -63 6
-43 32 -83 54 -83 19 0 40 40 40 77 0 27 6 46 20 58 28 25 25 37 -16 73 -32
28 -34 33 -23 54 7 13 14 30 15 38 2 8 6 35 9 60 6 46 26 100 35 100 3 0 7 12
8 27 1 14 8 34 16 42 8 9 17 30 21 46 13 59 14 60 50 23 28 -28 85 -56 125
-63 3 0 11 -4 18 -9 11 -7 12 -4 3 12 -6 11 -16 23 -23 25 -8 3 -6 6 5 6 10 1
17 9 17 21 0 28 20 25 20 -2 1 -13 7 -45 15 -73 l15 -50 -6 54 c-5 46 -4 53 9
48 9 -3 18 1 21 9 3 8 -1 14 -9 14 -7 0 -17 9 -20 20 -4 12 -15 20 -28 20 -16
0 -18 3 -10 11 7 7 9 25 6 41 -4 21 -1 33 13 43 18 14 18 14 -4 15 -28 0 -25
22 4 30 10 3 20 11 22 19 3 12 0 12 -13 1 -8 -7 -19 -10 -22 -6 -12 12 -16
147 -5 158 11 11 28 -43 23 -74 -1 -10 5 -28 14 -40 l17 -23 -5 25 c-3 14 -11
51 -17 84 -11 56 -13 58 -41 54 -20 -3 -29 0 -29 9 0 8 3 12 8 10 11 -8 9 57
-3 65 -5 4 -9 31 -8 59 1 29 -4 66 -11 83 -8 17 -17 46 -20 65 -7 40 -47 96
-79 111 l-22 11 21 -18z"/>
<path d="M1430 1709 c-10 -6 2 -9 38 -9 28 0 52 4 52 9 0 12 -72 12 -90 0z"/>
<path d="M928 1684 c-15 -8 -32 -22 -37 -32 -22 -41 -42 -209 -40 -327 l2
-120 -84 1 c-198 3 -222 6 -246 30 -18 18 -22 30 -17 56 17 102 23 108 116
108 69 0 141 -14 166 -33 6 -5 12 -24 12 -41 1 -17 7 -44 15 -61 13 -28 14
-25 12 55 l-2 85 -40 13 c-22 7 -91 14 -154 15 -111 2 -114 1 -133 -24 -11
-14 -22 -49 -25 -82 -5 -47 -9 -57 -22 -53 -9 3 -95 12 -191 21 -96 8 -194 17
-217 19 -31 2 -43 0 -43 -10 0 -19 17 -22 205 -34 94 -6 181 -13 195 -15 14
-2 35 -4 48 -4 12 -1 22 -7 22 -16 0 -24 56 -58 97 -60 21 0 77 -2 126 -3 l87
-2 0 -33 c0 -48 -15 -59 -58 -42 -41 18 -90 19 -128 5 -22 -9 -29 -8 -36 5
-11 19 -37 20 -44 1 -4 -10 -15 -11 -52 -4 -26 5 -62 9 -79 10 -18 1 -33 6
-33 12 0 6 -5 5 -12 -2 -18 -18 -108 -16 -108 2 0 12 -7 13 -32 5 -18 -5 -70
-9 -116 -9 -63 0 -83 -3 -80 -12 6 -16 166 -24 181 -9 7 7 20 5 40 -6 22 -11
70 -16 181 -19 133 -3 296 -4 378 -2 28 1 50 28 22 28 -11 0 -14 9 -12 32 2
25 8 32 28 35 14 2 30 10 36 18 15 20 27 19 49 -5 18 -20 84 -44 94 -34 6 6
-17 26 -60 54 -48 31 -71 60 -65 83 3 13 8 85 12 162 6 147 15 195 40 216 16
13 135 23 165 13 32 -9 28 -51 -8 -106 -41 -64 -40 -88 11 -175 48 -83 46
-143 -7 -202 -12 -13 -17 -21 -10 -18 6 4 13 1 16 -5 8 -21 39 63 46 122 4 32
11 54 18 53 19 -4 45 34 40 59 -4 21 -4 20 -6 -4 -1 -22 -6 -28 -24 -28 -28 0
-47 19 -76 77 -20 39 -20 46 -7 77 8 19 21 38 29 42 9 6 16 30 19 65 l4 57
-35 6 c-63 10 -145 6 -173 -10z"/>
<path d="M1874 1650 c4 -14 9 -34 11 -45 2 -11 12 -60 23 -110 11 -49 28 -126
37 -170 9 -44 18 -87 20 -95 2 -8 8 -44 15 -80 19 -107 20 -111 31 -104 6 4 8
22 4 48 -26 165 -120 554 -137 571 -7 7 -8 2 -4 -15z"/>
<path d="M0 1636 c0 -9 1 -16 3 -16 2 0 363 -46 552 -70 50 -6 101 -17 115
-23 14 -5 57 -12 97 -13 57 -2 71 0 66 11 -6 18 -37 28 -93 31 -25 1 -65 7
-90 12 -62 14 -96 19 -238 37 -68 9 -144 20 -170 24 -26 5 -54 9 -62 9 -8 -1
-52 3 -97 7 -73 7 -83 6 -83 -9z"/>
<path d="M2949 1630 c-2 -33 -4 -38 -11 -46 -14 -13 -8 -24 12 -24 11 0 20 -5
20 -11 0 -6 7 -4 15 5 17 16 21 51 5 41 -6 -4 -8 -11 -5 -16 4 -5 -1 -9 -9 -9
-18 0 -22 25 -6 35 6 3 10 15 10 26 0 25 -30 25 -31 -1z"/>
<path d="M1393 1623 c-14 -3 -23 -12 -23 -24 0 -18 1 -18 36 2 27 15 39 17 50
9 7 -7 18 -9 23 -6 5 4 12 2 16 -4 12 -20 26 -10 15 10 -11 20 -56 25 -117 13z"/>
<path d="M1630 1585 c-7 -9 -9 -19 -5 -23 4 -4 10 -2 12 4 3 9 10 9 28 0 14
-6 25 -14 25 -18 0 -5 5 -8 10 -8 16 0 12 18 -10 40 -24 24 -43 25 -60 5z"/>
<path d="M2685 1581 c-8 -26 9 -51 24 -35 6 5 5 18 -3 33 l-14 24 -7 -22z"/>
<path d="M2868 1570 c-7 -11 -20 -20 -28 -21 -9 0 -6 -4 8 -9 12 -5 22 -14 22
-19 0 -5 8 -7 18 -4 22 5 24 43 2 43 -9 1 -6 6 10 15 25 14 25 14 3 15 -13 0
-28 -9 -35 -20z"/>
<path d="M2572 1542 c-41 -45 -38 -62 5 -24 l31 29 11 -23 c6 -13 17 -24 26
-24 13 0 13 -3 3 -20 -16 -25 -38 -34 -38 -14 0 8 5 12 10 9 6 -3 10 -1 10 6
0 7 -9 9 -22 5 -13 -3 -29 -6 -35 -6 -7 0 -13 -4 -13 -10 0 -5 9 -10 20 -10
16 0 20 -7 20 -31 0 -28 -3 -31 -25 -27 -13 3 -22 2 -20 -3 6 -8 -13 -22 -34
-26 -7 -1 -18 -6 -24 -12 -16 -16 15 -14 79 5 49 14 53 17 50 42 -2 15 -1 19
1 9 2 -9 9 -15 14 -11 6 3 16 1 23 -5 7 -6 51 -12 97 -13 48 -1 93 -7 104 -14
25 -16 135 -27 135 -14 0 6 -6 10 -12 10 -9 0 -8 4 2 10 12 8 11 10 -5 10 -12
0 -27 -6 -34 -12 -11 -11 -12 -10 -6 1 5 10 3 12 -11 7 -11 -3 -32 -2 -49 3
l-30 9 30 3 c24 1 26 3 8 6 -26 5 -33 43 -8 43 8 0 12 6 9 14 -5 12 -9 11 -25
-5 -10 -10 -19 -25 -19 -33 0 -17 -43 -33 -48 -18 -1 5 -13 8 -25 5 -15 -3
-18 -2 -9 5 10 7 10 11 -3 22 -13 11 -15 9 -15 -9 0 -26 -15 -27 -29 -3 -6 9
-11 11 -11 5 0 -15 -46 -17 -55 -3 -9 15 4 50 20 50 8 0 17 5 21 12 5 8 2 9
-9 5 -10 -3 -17 -2 -17 3 0 6 5 10 10 10 6 0 10 5 10 11 0 6 -10 9 -23 7 -20
-4 -23 -1 -19 21 6 41 -35 37 -76 -7z"/>
<path d="M0 1555 c0 -8 4 -15 9 -15 11 0 327 -35 500 -55 73 -9 150 -22 169
-31 35 -14 35 -14 17 6 -23 26 -61 35 -220 55 -72 8 -200 24 -285 35 -186 24
-190 24 -190 5z"/>
<path d="M2760 1557 c-14 -7 -25 -17 -25 -22 0 -6 -4 -16 -8 -22 -11 -18 1
-16 20 3 10 10 19 12 25 6 11 -11 48 -4 48 9 0 5 -4 9 -10 9 -5 0 -10 7 -10
15 0 18 -7 19 -40 2z"/>
<path d="M1196 1533 c9 -37 24 -53 24 -26 0 28 -10 53 -21 53 -5 0 -6 -12 -3
-27z"/>
<path d="M1523 1515 c-35 -37 -40 -54 -21 -73 19 -19 30 -14 18 7 -13 26 -5
46 26 59 13 7 24 18 24 27 0 23 -12 18 -47 -20z"/>
<path d="M2915 1512 c-7 -18 -6 -22 3 -21 22 4 32 -3 32 -22 0 -18 2 -19 15
-9 8 7 12 16 9 22 -3 5 0 15 6 23 14 17 15 17 -27 19 -20 1 -35 -4 -38 -12z"/>
<path d="M1542 1464 c5 -25 98 -38 106 -15 3 10 -2 12 -21 8 -16 -5 -29 -2
-37 8 -17 21 -52 20 -48 -1z"/>
<path d="M2944 1426 c-10 -10 -6 -13 17 -14 19 0 29 4 29 14 0 17 -31 18 -46
0z"/>
<path d="M1490 1340 c-31 -10 -27 -12 32 -16 27 -2 64 -11 83 -20 20 -9 39
-14 42 -10 10 10 -37 45 -53 39 -8 -3 -14 0 -14 6 0 12 -52 13 -90 1z"/>
<path d="M1682 1312 c-5 -16 -31 -57 -57 -91 -47 -61 -47 -62 -88 -56 -23 4
-49 7 -57 7 -8 0 -29 11 -47 24 -48 36 -63 28 -20 -10 45 -40 115 -54 165 -33
39 16 99 91 113 141 12 45 6 60 -9 18z"/>
<path d="M1515 1282 c-2 -3 3 -11 13 -18 19 -15 68 -18 76 -6 6 10 -80 32 -89
24z"/>
<path d="M2459 1220 c23 -22 47 -40 52 -40 5 0 -11 18 -35 40 -24 22 -47 40
-52 40 -4 0 11 -18 35 -40z"/>
<path d="M273 1199 c-18 -5 -33 -14 -33 -19 0 -5 13 -5 30 2 17 5 42 7 56 4
19 -5 25 -3 22 6 -6 17 -34 19 -75 7z"/>
<path d="M1820 1135 c0 -19 4 -35 9 -35 5 0 16 -3 25 -6 11 -4 16 0 16 14 0
13 -6 19 -17 18 -13 -1 -18 6 -17 22 1 12 -3 22 -7 22 -5 0 -9 -16 -9 -35z"/>
<path d="M906 1118 c-20 -31 -72 -57 -120 -60 -22 -2 -41 -9 -44 -16 -2 -6 2
-10 10 -8 7 3 39 7 71 9 36 3 65 11 77 22 11 10 20 14 20 9 0 -5 4 -3 9 4 4 7
14 15 22 16 28 6 49 18 44 27 -3 4 -12 6 -20 3 -7 -3 -23 -1 -34 5 -17 10 -23
8 -35 -11z"/>
<path d="M1145 1132 c6 -6 47 -33 93 -61 96 -58 170 -78 228 -64 39 10 38 10
-22 11 -58 1 -135 24 -187 56 -56 34 -121 68 -112 58z"/>
<path d="M1260 1124 c0 -14 132 -64 180 -69 55 -6 104 9 102 30 -2 14 -111 18
-142 5 -22 -9 -37 -7 -83 14 -32 14 -57 23 -57 20z"/>
<path d="M1883 1073 c19 -5 23 -28 7 -38 -5 -3 -10 -16 -9 -28 0 -22 0 -22 10
1 5 13 13 20 19 17 6 -4 10 6 10 24 0 27 -3 31 -27 30 -17 -1 -21 -3 -10 -6z"/>
<path d="M2772 1069 c-11 -4 -23 -12 -27 -18 -9 -15 48 -14 63 1 17 17 15 7
-13 -68 -31 -81 -40 -93 -65 -87 -12 3 -20 0 -20 -6 0 -7 -4 -10 -9 -7 -4 3
-17 -1 -27 -10 -17 -14 -14 -14 36 -8 30 4 82 8 115 9 33 1 77 7 97 14 27 9
42 9 58 1 16 -8 20 -8 20 4 0 22 -33 25 -172 14 -33 -3 -38 0 -38 17 0 11 6
29 14 40 7 11 16 34 20 50 4 17 9 37 12 46 5 17 -29 21 -64 8z"/>
<path d="M1997 1013 c-14 -13 -6 -21 15 -15 14 3 19 2 14 -6 -4 -7 -2 -12 4
-12 6 0 8 -4 5 -10 -3 -5 0 -10 9 -10 24 0 24 24 0 42 -24 19 -37 22 -47 11z"/>
<path d="M2891 1005 c-19 -6 -36 -16 -38 -22 -6 -16 16 -26 30 -15 16 13 89
13 81 0 -4 -6 2 -8 11 -6 10 1 20 8 22 14 5 16 -43 24 -57 10 -8 -8 -9 -7 -5
5 9 24 -5 28 -44 14z"/>
<path d="M5 982 c6 -6 46 -12 90 -14 l80 -3 -1 -279 c0 -253 -2 -280 -18 -291
-11 -8 -13 -15 -7 -20 15 -9 14 -55 -1 -55 -6 0 -3 -6 8 -14 18 -14 18 -15 2
-21 -10 -4 -15 -11 -12 -16 8 -14 -60 -11 -75 4 -11 9 -14 9 -18 0 -3 -7 -12
-13 -21 -13 -29 0 9 -20 38 -20 21 0 22 -2 10 -11 -12 -9 -12 -10 3 -5 23 7
60 -11 54 -27 -2 -7 -12 -13 -23 -13 -10 -1 -26 -5 -35 -8 -18 -8 -34 18 -22
36 4 7 1 8 -6 4 -7 -5 -21 0 -33 11 l-21 18 16 -31 c15 -28 68 -64 96 -64 16
0 14 -20 -3 -26 -8 -3 -33 7 -56 21 l-42 27 28 -38 c54 -72 84 -93 84 -59 0 9
16 63 36 121 l36 106 0 335 c0 184 -3 338 -7 341 -11 11 -191 15 -180 4z"/>
<path d="M374 889 c0 -54 4 -95 9 -92 9 5 8 85 -3 143 -6 36 -8 25 -6 -51z"/>
<path d="M1288 948 c11 -13 45 -63 75 -113 30 -49 60 -90 67 -90 7 0 24 39 40
90 15 50 31 98 35 107 5 13 -6 10 -49 -13 -54 -29 -56 -30 -88 -13 -18 9 -45
25 -60 35 -36 26 -46 24 -20 -3z m167 -82 c-9 -13 -15 -28 -14 -32 1 -5 -1
-17 -6 -27 -7 -16 -12 -13 -35 25 l-27 43 31 6 c64 13 68 12 51 -15z"/>
<path d="M1981 894 c-17 -14 -31 -22 -31 -18 0 4 -11 -3 -24 -15 l-24 -23 -5
24 c-3 18 -5 16 -6 -9 0 -18 -5 -33 -11 -33 -5 0 -10 -8 -10 -17 0 -9 -18 -34
-40 -54 -22 -21 -40 -41 -40 -45 0 -4 37 28 83 72 45 44 100 94 122 111 22 18
35 32 28 33 -6 0 -25 -12 -42 -26z"/>
<path d="M674 767 c51 -33 77 -62 95 -110 11 -29 20 -45 20 -37 1 47 -67 139
-114 153 -19 6 -19 6 -1 -6z"/>
<path d="M2185 688 c9 -28 35 -71 41 -66 4 5 -36 88 -43 88 -2 0 -1 -10 2 -22z"/>
<path d="M2667 703 c-13 -13 -7 -33 11 -33 9 0 80 -16 157 -34 120 -30 142
-33 154 -21 8 8 12 17 9 20 -5 5 -302 75 -319 75 -3 0 -9 -3 -12 -7z"/>
<path d="M339 695 c-4 -15 -7 -23 -23 -59 -19 -42 -15 -62 4 -24 7 12 24 36
39 52 l26 28 -24 -7 c-16 -5 -21 -4 -17 4 4 6 5 11 2 11 -3 0 -7 -2 -7 -5z"/>
<path d="M1723 633 c-12 -13 -41 -50 -63 -84 -23 -33 -51 -64 -63 -68 l-22 -8
23 -7 c13 -5 25 -6 26 -4 16 19 126 191 124 192 -2 1 -13 -8 -25 -21z"/>
<path d="M797 600 c-4 -19 -12 -66 -17 -104 -5 -38 -13 -73 -18 -78 -5 -5 -25
6 -47 27 -21 19 -48 38 -59 41 -12 4 -23 10 -26 15 -3 4 -21 11 -40 14 -19 3
-39 10 -44 15 -5 5 -15 6 -24 3 -8 -4 -13 -2 -10 3 11 16 -204 -1 -239 -19
-18 -9 -39 -17 -48 -17 -8 0 -15 -8 -15 -17 0 -10 -3 -29 -7 -43 -6 -23 -5
-22 23 8 32 35 116 62 194 62 120 -1 268 -58 303 -117 17 -30 17 -33 -9 -114
-14 -46 -48 -126 -75 -178 -28 -51 -48 -95 -45 -98 10 -10 67 65 97 127 43 90
46 99 60 148 7 23 17 42 22 42 5 0 4 6 -2 14 -8 10 -9 16 -1 21 5 3 10 17 10
31 0 14 7 40 14 59 8 19 11 35 7 35 -5 0 -4 23 1 51 5 28 8 63 6 77 -4 25 -5
25 -11 -8z"/>
<path d="M2973 521 c-11 -22 -23 -38 -26 -35 -3 3 -4 -1 -4 -8 3 -26 -15 -100
-22 -90 -4 6 -6 -37 -6 -96 1 -76 6 -121 19 -157 l18 -49 -26 -21 c-31 -24
-33 -35 -8 -35 28 0 84 64 80 91 -1 12 -10 24 -18 26 -13 4 -13 3 0 -6 13 -9
13 -12 -2 -27 -16 -16 -18 -16 -27 8 -43 113 -30 272 31 391 10 21 17 41 15
43 -2 3 -13 -13 -24 -35z"/>
<path d="M1656 479 c-15 -28 -26 -53 -23 -56 3 -3 15 13 26 35 11 22 25 42 30
44 6 1 7 8 3 15 -5 8 -18 -6 -36 -38z"/>
<path d="M1750 414 c-8 -21 -14 -42 -12 -46 1 -4 -2 -8 -8 -8 -13 0 -55 -68
-64 -103 -6 -27 -6 -27 13 -8 10 10 25 31 32 47 15 30 43 47 33 20 -13 -33 7
-14 27 27 12 23 33 54 47 70 23 25 24 27 6 27 -10 0 -28 3 -39 6 -17 4 -24 -2
-35 -32z"/>
<path d="M1826 380 l-26 -40 36 0 c32 0 34 1 20 16 -19 19 -20 26 -4 42 6 6 9
14 6 17 -3 3 -17 -13 -32 -35z"/>
<path d="M1365 390 c-145 -19 -231 -34 -239 -41 -5 -5 20 -7 55 -4 70 4 58 -3
-56 -29 -136 -32 -160 -40 -138 -44 13 -2 82 13 155 33 194 54 195 54 319 57
104 2 128 7 129 30 0 8 -156 6 -225 -2z"/>
<path d="M1420 314 c-212 -38 -229 -52 -25 -20 55 9 115 16 133 16 17 0 32 5
32 10 0 13 -48 11 -140 -6z"/>
<path d="M2685 275 c-38 -7 -149 -21 -246 -31 -168 -16 -179 -17 -213 0 -20 9
-51 16 -69 14 -32 -4 -32 -4 13 -17 25 -7 50 -17 57 -23 14 -11 149 -4 357 18
76 8 141 13 143 10 9 -9 43 14 43 29 0 8 -3 14 -7 14 -5 -1 -39 -7 -78 -14z"/>
<path d="M1325 257 c-43 -4 -81 -10 -84 -12 -11 -12 8 -13 59 -3 30 5 75 8
100 5 25 -3 38 -3 30 0 -8 3 -17 9 -20 12 -3 4 -41 3 -85 -2z"/>
<path d="M1503 237 c3 -7 -3 -47 -12 -88 l-17 -74 -39 0 c-22 0 -43 -4 -47 -9
-3 -5 -62 7 -140 29 -117 34 -148 39 -253 41 l-120 2 107 -8 c58 -4 132 -14
164 -20 53 -11 144 -45 144 -53 0 -2 -15 -4 -32 -4 -18 0 -76 -6 -128 -12 -65
-8 -106 -8 -129 -1 -39 11 -48 8 -28 -9 17 -14 44 -15 127 -8 36 4 148 11 250
17 102 6 203 13 225 15 22 3 92 6 155 8 114 2 115 2 118 27 4 22 2 23 -13 10
-23 -19 -45 -21 -45 -4 0 17 -12 18 -27 3 -8 -8 -13 -7 -18 1 -4 6 -2 17 4 23
6 6 11 8 11 4 0 -3 11 4 25 17 30 28 32 46 5 46 -14 0 -18 -5 -14 -17 5 -17 5
-17 -6 0 -14 21 -30 22 -30 1 0 -8 4 -12 10 -9 13 8 0 -26 -15 -40 -14 -13
-53 -35 -61 -35 -3 0 -4 9 -1 20 8 29 0 24 -19 -12 -23 -45 -30 -18 -10 36 21
56 28 88 15 81 -5 -4 -9 -15 -9 -25 0 -10 -4 -22 -10 -25 -5 -3 -10 -13 -10
-21 0 -18 -16 -36 -47 -52 -30 -16 -33 -15 -34 11 -1 19 -3 17 -15 -11 -15
-34 -31 -41 -40 -18 -5 12 16 120 31 159 5 12 2 17 -10 17 -10 0 -15 -5 -12
-13z"/>
<path d="M1141 229 c-43 -8 -58 -15 -50 -23 6 -6 126 18 135 27 9 9 -28 7 -85
-4z"/>
<path d="M2764 177 c8 -78 -5 -99 -71 -118 l-48 -14 85 -5 c47 -3 88 -4 93 -2
4 2 -1 15 -12 30 -10 15 -24 60 -31 100 -6 39 -14 72 -17 72 -3 0 -3 -28 1
-63z"/>
<path d="M818 213 c17 -2 47 -2 65 0 17 2 3 4 -33 4 -36 0 -50 -2 -32 -4z"/>
<path d="M970 198 c-139 -16 -165 -28 -51 -22 57 3 118 11 135 19 36 16 25 16
-84 3z"/>
<path d="M1985 198 c-43 -5 -81 -11 -84 -13 -8 -9 7 -16 41 -21 22 -3 28 -2
19 4 -17 12 0 23 19 12 7 -5 25 -4 39 1 14 6 39 9 56 8 16 -1 38 2 48 6 9 4
29 5 42 2 14 -2 28 0 31 4 6 11 -104 9 -211 -3z"/>
<path d="M2168 148 c-43 -53 -62 -88 -49 -88 6 0 18 15 27 33 9 17 28 47 42
65 36 47 20 39 -20 -10z"/>
<path d="M1900 143 c0 -3 128 -66 165 -81 6 -3 -9 11 -32 29 -35 27 -133 66
-133 52z"/>
<path d="M13 93 c-13 -5 -19 -33 -7 -33 3 0 14 5 25 10 34 19 19 38 -18 23z"/>
<path d="M1888 33 c-12 -15 -12 -16 29 -4 25 7 31 6 26 -4 -3 -9 2 -13 16 -12
13 1 21 8 21 19 0 13 -8 17 -41 15 -22 -1 -45 -7 -51 -14z"/>
<path d="M2320 20 c-10 -7 7 -10 57 -10 39 0 75 5 78 10 8 13 -115 13 -135 0z"/>
</g>
</svg>
